<svg width="10" height="15" viewBox="0 0 10 15" fill="none" xmlns="http://www.w3.org/2000/svg">
<path d="M2.50051 15C3.88023 15 5.00001 13.88 5.00001 12.5V10H2.50051C1.12078 10 0.00100708 11.12 0.00100708 12.5C0.00100708 13.88 1.12078 15 2.50051 15Z" fill="#484343"/>
<path d="M0.00100708 7.5C0.00100708 6.12 1.12078 5 2.50051 5H5.00001V10H2.50051C1.12078 10 0.00100708 8.88 0.00100708 7.5Z" fill="#484343"/>
<path d="M0.00222778 2.5C0.00222778 1.12 1.122 0 2.50172 0H5.00121V4.99999H2.50172C1.122 4.99999 0.00222778 3.88 0.00222778 2.5Z" fill="#484343"/>
<path d="M5 0H7.4995C8.87922 0 9.999 1.12 9.999 2.5C9.999 3.88 8.87922 4.99999 7.4995 4.99999H5V0Z" fill="#484343"/>
<path d="M9.999 7.5C9.999 8.88 8.87922 10 7.4995 10C6.11978 10 5 8.88 5 7.5C5 6.12 6.11978 5 7.4995 5C8.87922 5 9.999 6.12 9.999 7.5Z" fill="#484343"/>
</svg>
